<?xml version="1.0" encoding="utf-8"?>
<!-- Generator: Adobe Illustrator 24.0.2, SVG Export Plug-In . SVG Version: 6.00 Build 0)  -->
<svg version="1.1" id="Layer_1" xmlns="http://www.w3.org/2000/svg" xmlns:xlink="http://www.w3.org/1999/xlink" x="0px" y="0px"
	 viewBox="0 0 500 500" style="enable-background:new 0 0 500 500;" xml:space="preserve">
<style type="text/css">
	.st0{fill:url(#SVGID_1_);stroke:#A21200;stroke-miterlimit:10;}
	.st1{fill:#F7A834;stroke:#A28400;stroke-miterlimit:10;}
	.st2{fill:#F7A834;stroke:#FFB9F8;stroke-miterlimit:10;}
	.st3{fill:#070401;}
	.st4{fill:#FFF385;}
	.st5{font-family:'MyriadPro-Regular';}
	.st6{font-size:16.7011px;}
	.st7{fill:#F7A834;}
	.st8{fill:#FC160B;stroke:#A21200;stroke-miterlimit:10;}
</style>
<linearGradient id="SVGID_1_" gradientUnits="userSpaceOnUse" x1="-88.7636" y1="228.9868" x2="638.4363" y2="228.9868">
	<stop  offset="0.2067" style="stop-color:#FFCFAA"/>
	<stop  offset="0.4248" style="stop-color:#F9AEB8;stop-opacity:0.9497"/>
	<stop  offset="0.824" style="stop-color:#ED69D4;stop-opacity:0.8577"/>
</linearGradient>
<path class="st0" d="M-88.8-58c3.3-1.3,727.2,18.3,727.2,18.3V516h-686L-88.8-58z"/>
<path class="st1" d="M269.1,421.8c-7.3-9.2-9.3-19.4-9.9-24.4c-0.5-2.8-4-27.2,10.1-41.6c1.9-1.9,10.2-10.4,18.9-8.1
	c9.9,2.5,13.8,7.9,17,17.8c2.3,7.1,4,22.6,4.5,27c1.5,16.3-0.3,24.4-2.3,28.9c-0.4,0.8-1.3,2.8-0.7,4.4c1.4,3.5,2.4,2,11.3,2.7
	c3.8-0.4,5.7-1,11.3-1c0.6,0,4.9,1.5,6.5,2.2c2.9,1.2,1.7,3.5,1.4,6.1c-0.2,2-8.8,2.5-13,2.4c-19.9-0.5-19.9-0.5-22.5-1.2
	c-5.8-1.6-12.2-2.5-23.6-6.7C275.5,428.4,272.2,425.7,269.1,421.8z"/>
<path class="st1" d="M218.4,421.8c7.3-9.2,9.3-19.4,9.9-24.4c0.5-2.8,4-27.2-10.1-41.6c-1.9-1.9-10.2-10.4-18.9-8.1
	c-9.9,2.5-13.8,7.9-17,17.8c-2.3,7.1-4,22.6-4.5,27c-1.5,16.3,0.3,24.4,2.3,28.9c0.4,0.8,1.3,2.8,0.7,4.4c-1.4,3.5-2.4,2-11.3,2.7
	c-3.8-0.4-5.7-1-11.3-1c-0.6,0-4.9,1.5-6.5,2.2c-2.9,1.2-1.7,3.5-1.4,6.1c0.2,2,8.8,2.5,13,2.4c19.9-0.5,19.9-0.5,22.5-1.2
	c5.8-1.6,12.2-2.5,23.6-6.7C212,428.4,215.3,425.7,218.4,421.8z"/>
<path class="st1" d="M214.9,324.2c-4.8,10.1-3,9.4-3,20.7c0,1.3-0.5,7.2-0.3,9.1c0.4,5.1,2.5,11.8,6.4,32.8
	c5.9,31.4-0.6,31.5,4,35.9c8.8,8.5,25.1,11.6,36.2,5.7c14.4-7.6,16-30.6,18.1-59.9c1.5-20.6,2.4-31-1.2-41.3
	c-6.2-17.7-18-25.7-16.4-42.5c0.6-5.7,2.4-10,4.7-15.2c6.8-15.6,15-20.8,15.7-32.7c0.1-2.6-0.3-5.4-1.6-8.5
	c-6.1-15.1-7.1-33.5-20.3-36c-14.8-2.8-17.6,18.9-22.6,27.5c-8.1,13.9,0.8,19.6-3,47.6c-1.1,8.1-2.2,15.9-5.7,25.8
	C224.5,296.9,221.7,310.1,214.9,324.2z"/>
<path class="st1" d="M315.7,193.6c4.6-7.3,9.2-17.2,11.8-21.9l22.8,9.1l-18.2-32.8l-27.3,23.7c-3.2-3.2-18.6-17.7-42.8-18.2
	c-26-0.6-39.7,12.5-42.6,15.3l-31.2-15.4l-13.9,33.3l22.1-12.3c3.4,3.9,6.1,8.5,10.9,15.5c31.2,45,24.8,77.5,39.2,81.1
	C264.1,275.5,292.2,230.8,315.7,193.6z"/>
<path class="st2" d="M213.6,246.4"/>
<path class="st3" d="M238.7,262.2c1.5-4.7,10.6-5.6,12.8-2.7c2.3,3-1.7,11.9-6.4,11.8C241.4,271.3,237.5,266,238.7,262.2z"/>
<polygon class="st4" points="245.3,163.9 249.8,183.9 273.6,183.9 270.2,163.9 "/>
<text transform="matrix(0.9905 -0.1376 0.1376 0.9905 252.1107 181.3812)" class="st5 st6">27</text>
<path d="M281.8,190c1-2.1,3.7-3.1,5.8-2.4c2.7,1,3.5,4.1,3,6c-0.1,0.6-0.4,0.9-0.5,1.1c-1,1.6-3.4,2.5-5.4,1.9
	C282.1,195.8,280.6,192.6,281.8,190z"/>
<path d="M229.5,190c1-2.1,3.7-3.1,5.8-2.4c2.7,1,3.5,4.1,3,6c-0.1,0.6-0.4,0.9-0.5,1.1c-1,1.6-3.4,2.5-5.4,1.9
	C229.8,195.8,228.2,192.6,229.5,190z"/>
<path class="st7" d="M275.3,324.2"/>
<path class="st1" d="M252.6,291.7c2.4-3.2,13.7-1.1,21.3,4.9c20.8,16.3,13.3,61.7,9.7,83.8c-4.6,28.2-14.2,55.9-2.4,65
	c3.5,2.7,9.7,4.3,9.7,7.9c0,3.2-5,6.7-9.4,6.5c-7.1-0.3-11.8-10.3-13.7-14.4c-16.7-35.4,22.5-85.2,1.8-125.7
	C262.4,305.5,249.5,295.7,252.6,291.7z"/>
<path class="st7" d="M-4.1,87.1"/>
<path class="st1" d="M236.6,291.7c-2.4-3.2-13.7-1.1-21.3,4.9c-20.8,16.3-13.3,61.7-9.7,83.8c4.6,28.2,14.2,55.9,2.4,65
	c-3.5,2.7-9.7,4.3-9.7,7.9c0,3.2,5,6.7,9.4,6.5c7.1-0.3,11.8-10.3,13.7-14.4c16.7-35.4-22.5-85.2-1.8-125.7
	C226.8,305.5,239.6,295.7,236.6,291.7z"/>
<path class="st7" d="M275.7,319.1c0.1-2.5-0.9-5.1-3.1-6.5c-0.7-1.4-1.9-2.5-3.5-3.1c-0.2-2.9-1.8-5.6-5-6.3c0-2.7-1.3-5.4-3.9-6.5
	c-0.7-1.2-1.7-2.3-3.2-2.8c2-4.1,0-10.2-6-10.2c-2.1,0-3.7,0.7-4.8,1.9c-2.3,2.1-2.8,5.9-1.4,8.7c-1.8,3.5-0.6,8.6,3.6,10
	c-0.3,2.9,1.1,6,4,7.2c0.9,2.1,2.7,3.7,5.5,3.9c0.6,0.5,1.3,1,2.1,1.2c0.1,1.4,0.5,2.7,1.3,3.8c0.2,0.8,0.6,1.5,1.1,2.1
	c0.2,0.6,0.4,1.1,0.7,1.6c0.9,2.3,3,4.1,6.2,4.1C274.6,328.1,276.7,323.1,275.7,319.1z"/>
<path class="st7" d="M240,296.4c1.8-4.1-0.3-10-6.1-10c-5.8,0-7.9,5.9-6.1,10c-0.4,1-0.6,2.1-0.6,3.2c0,0-0.1,0-0.1,0
	c-4.2,0-6.5,3.1-6.7,6.4c-2.1,1.6-2.9,4.5-2.4,7.1c-0.2,0-0.3,0-0.5,0c-9,0-9,13.9,0,13.9c5.1,0,7.3-4.6,6.6-8.5c0.2,0,0.3,0,0.5,0
	c4.2,0,6.5-3.1,6.7-6.4c1.7-1.4,2.6-3.5,2.5-5.7c0,0,0.1,0,0.1,0C239.8,306.5,241.8,300.6,240,296.4z"/>
<path class="st8" d="M294.1,141c-2.4,0.1-4.7-1.7-5-4.1c-0.3-2.8,2.2-5.3,5-5.2c2.2,0.1,4.3,1.8,4.5,4.1
	C298.9,138.5,296.7,140.9,294.1,141z"/>
<path class="st8" d="M286.1,124.7"/>
<path class="st8" d="M308.1,93.2c6.2-1.4,13.3-4.2,15.9-9.9c3-6.3,1.8-14.5-2.5-18c-11.1-9-29.5-4.8-31.5-4.4
	c-0.4,1.8-0.5,4.2,1,5.4c1.5,1.1,3.8,0.3,6.5,0c5.8-0.7,12.9-0.6,17,2.6c3.2,2.5,4.8,5.9,3.2,9c-2.2,4.2-12,12.4-26.7,9v6.3v33.5
	h7.4l0,0c-0.5-2.1-1.4-24.3-1.4-31.2c0-1.2,1.5-1.5,1.5-1.5C304.7,93.9,304.7,93.9,308.1,93.2z"/>
</svg>
