<?xml version="1.0" encoding="utf-8"?>
<!-- Generator: Adobe Illustrator 24.0.2, SVG Export Plug-In . SVG Version: 6.00 Build 0)  -->
<svg version="1.1" id="Layer_1" xmlns="http://www.w3.org/2000/svg" xmlns:xlink="http://www.w3.org/1999/xlink" x="0px" y="0px"
	 viewBox="0 0 500 500" style="enable-background:new 0 0 500 500;" xml:space="preserve">
<style type="text/css">
	.st0{fill:#DFFFDC;stroke:#000000;stroke-miterlimit:10;}
	.st1{fill:#FFFAD0;stroke:#000000;stroke-miterlimit:10;}
	.st2{fill:#E9FFFC;stroke:#000000;stroke-miterlimit:10;}
	.st3{fill:#FFC0E9;stroke:#000000;stroke-miterlimit:10;}
	.st4{fill:none;stroke:#000000;stroke-miterlimit:10;}
	.st5{fill:#020202;stroke:#000000;stroke-miterlimit:10;}
</style>
<polygon class="st0" points="-63.99,-42.47 610.19,-31.48 588.21,536.1 -107.95,533.35 "/>
<path class="st1" d="M559.2,431.14c-10.89,13.16-32.63,15.03-76.11,18.78c-47.38,4.08-59.2-2.79-63.45-5.59
	c-14.71-9.67-28.57-29.56-25.82-47.25c7.11-45.75,122.74-86.11,161.54-44.51C573.52,372.04,576.22,410.58,559.2,431.14z"/>
<path class="st1" d="M407.87,401.48c-13.65,1.97-30.92,8.27-30.82,14.37c0.11,6.57,20.31,12.35,35.71,13.74
	c10.97,0.99,46.28,4.18,66.48-20.88c12.92-16.03,21.24-45.58,6.59-59.89c-9.02-8.82-26.79-11.89-35.16-4.4
	c-13.9,12.44,6.76,46.26-6.59,56.59C436.96,406.52,429.11,398.42,407.87,401.48z"/>
<path class="st1" d="M383.64,420.24c10.59-2.12,21.25-6.39,34.62-2.2c3.16,0.99,12.33,3.87,13.74,10.44
	c1.2,5.6-3.86,10.94-4.95,12.09c-7.78,8.21-18.78,6.33-46.7,6.04c-26.37-0.27-39.29,1.14-60.99-2.75
	c-5.19-0.93-12.23-2.41-19.78-7.14c-3.77-2.36-16.06-10.07-17.73-20.47c-2.81-17.56,25.48-37.87,51.24-43.26
	c16.62-3.48,36.56-1.59,37.91,4.4c2.17,9.65-45.54,23.06-43.41,33.52C329.17,418.61,357.92,425.4,383.64,420.24z"/>
<path class="st1" d="M377.6,296.07c22.67-3.67,32.81-5.47,50.49-3.03c5.72,0.79,8.72-0.58,10.12-0.9c3.18-0.71,5.68-1.73,10.99-4.4
	c11.59-5.83,11.56-6.99,17.58-9.34c3.41-1.33,8.29-2.87,14.29-3.3c0.12-0.01,0.22-0.02,0.42-0.03c9.83-0.66,14.91-0.99,15.52,0.58
	c0.24,0.61-0.29,1.04-2.98,4.75c-1.88,2.58-3.23,4.44-4.71,6.79c-0.63,1.01-3.45,5.54-4.8,7.45c-0.1,0.14-0.19,0.27-0.19,0.27
	c-0.36,0.5-1.13,1.55-2.15,2.72c-0.54,0.62-0.93,1.03-1.28,1.37c-0.81,0.8-1.44,1.35-1.63,1.51c-1.56,1.35-4.14,4.12-5.83,6.11
	c-1.84,2.16-3.22,3.77-4.45,5.84c-0.53,0.89-2.43,4.22-3.47,10.55c-0.61,3.73,0.25,9.68,0.72,19.47c0.15,3.2,4.28,14.11,4.4,15.19
	c2.52,22.55-0.66,31.53-8.71,37.29c-1.78,1.27-5.24,5.86-11.76,8c-8.65,2.85-16.26,0.13-18.71-0.86
	c-12.94-6.53-18.14-8.96-18.54-8.87c-0.03,0.01-0.29,0.09-0.52-0.04c-0.67-0.36,0.06-1.88-1.82,3.42
	c-1.71,4.84-6.77,10.01-10.98,12.58c-7.33,4.48-14.55,4.15-17,3.93c-3.77,0.31-18.02,1.04-30.58-8.82
	c-6.86-5.38-10.44-11.75-12.2-15.58c-2-16.65-7.6-27.31-12.21-33.87c-6.83-9.73-12.32-9.05-19.78-22.5
	c-6.75-12.16-18.68-32.45-9.32-30.25c2.45,0.58,12.46,2.71,17.56,4.4c12.13,4,12.83,0.44,16.7,0.39c5.53-0.08,9.6-1.56,12.42-2.58
	C345.18,304.31,350.13,300.51,377.6,296.07z"/>
<path class="st2" d="M197,165.77c-13.23-8.17-28.38,12.57-49.45,8.24c-18.76-3.85-15.86-22.16-37.91-31.87
	c-24.97-11-43.47,5.96-57.14-7.14c-9.57-9.17-2.6-19.49-14.29-31.32C27.07,92.4,15.92,96.9,9.64,86.65c-5.69-9.29-4-25.19,4.4-33.52
	c12.42-12.32,29.7,1.67,50-10.99c13-8.1,9.91-16.33,24.05-23.04c1.26-0.6,19.31-8.84,36.39-1.14c11.47,5.17,9.98,11.88,19.23,15.38
	c13.88,5.26,22.21-7.96,48.9-13.74c10.47-2.27,33.27-7.2,48.35,4.4c11.01,8.47,7.71,17.91,17.03,22.53
	c12.76,6.32,24.36-8.68,52.2-16.48c23.2-6.51,57.5-7.97,67.03,7.14c6.95,11.02-5.01,21.74,2.2,32.97
	c9.29,14.46,32.92,2.56,52.75,18.68c12.53,10.19,20.39,29.02,14.84,40.66c-4.69,9.83-18.6,13.8-31.87,17.58
	c-15.38,4.39-22.6,2.53-28.57,9.34c-5.87,6.7-1.75,11.75-6.96,20c-7.34,11.62-25.49,17.36-39.75,14.07
	c-13.86-3.2-12.86-12.37-28.57-17.58c-18.57-6.16-36.28,1.25-38.46,2.2c-13.86,6.02-12.55,12.8-25.27,17.03
	c-10.94,3.64-26.61,3.53-36.81-4.95C201.01,179.12,204.95,170.68,197,165.77z"/>
<path class="st2" d="M349.2,230.04c-9.22,1.79-21.66-1.88-24.18-9.89c-2.83-9.02,8.11-19.83,18.13-23.63
	c9.76-3.69,23.87-2.71,27.47,4.4C375,209.54,363.92,227.18,349.2,230.04z"/>
<path class="st2" d="M350.96,242.34c1.93-6.96,14.3-7.67,14.84-7.69c6.08-0.28,15.12,1.93,16.48,7.14
	c1.67,6.37-8.16,17.24-18.13,15.93C356.4,256.72,349.26,248.47,350.96,242.34z"/>
<path class="st2" d="M376,268.77c-0.93-3.44,1.5-7.14,4.86-7.69c3.73-0.61,7.31,2.88,7.02,6.59c-0.21,2.73-2.48,5.18-5.4,5.49
	C379.55,273.48,376.76,271.55,376,268.77z"/>
<polygon class="st3" points="126.67,122.64 137.11,122.64 137.11,66.59 126.67,66.59 110.74,79.78 115.68,86.37 123.92,81.98 "/>
<polygon class="st3" points="252.75,122.64 263.19,122.64 263.19,66.59 252.75,66.59 236.81,79.78 241.76,86.37 250,81.98 "/>
<polygon class="st3" points="167.33,93.24 185.46,93.24 185.46,73.46 194.8,73.46 194.8,93.24 210.74,93.24 210.74,103.13 
	194.8,103.13 194.8,115.77 184.91,115.77 184.91,102.03 167.33,102.03 "/>
<path class="st4" d="M353.42,328.78c0.32,0.57,5.03,8.76,14.29,9.34c7.42,0.46,14.57-4.16,17.58-11.54"/>
<path class="st4" d="M407.82,325.22c2.54,6.48,9.08,10.52,15.93,9.89c6.66-0.61,12.23-5.51,13.74-12.09"/>
<path class="st5" d="M396.83,377.94c1.97-7.62,21.79-11.09,26.21-4.66c3.39,4.95-0.52,18.35-10.13,19.96
	C403.42,394.83,395.33,383.74,396.83,377.94z"/>
<path class="st1" d="M686.56,267.42"/>
<path class="st1" d="M593.7,260.27"/>
</svg>
