<?xml version="1.0" encoding="utf-8"?>
<!-- Generator: Adobe Illustrator 24.0.2, SVG Export Plug-In . SVG Version: 6.00 Build 0)  -->
<svg version="1.1" id="Layer_1" xmlns="http://www.w3.org/2000/svg" xmlns:xlink="http://www.w3.org/1999/xlink" x="0px" y="0px"
	 viewBox="0 0 500 500" style="enable-background:new 0 0 500 500;" xml:space="preserve">
<style type="text/css">
	.st0{fill:#FFDC8B;stroke:#2D1300;stroke-miterlimit:10;}
	.st1{fill:#2E0500;stroke:#000000;stroke-miterlimit:10;}
	.st2{fill:#723A03;stroke:#2D1300;stroke-miterlimit:10;}
	.st3{stroke:#2D1300;stroke-miterlimit:10;}
	.st4{fill:#A28400;stroke:#000000;stroke-miterlimit:10;}
	.st5{stroke:#D07B00;stroke-miterlimit:10;}
	.st6{stroke:#020100;stroke-miterlimit:10;}
	.st7{stroke:#000000;stroke-miterlimit:10;}
	.st8{fill:#A28400;stroke:#2D1300;stroke-miterlimit:10;}
</style>
<polygon class="st0" points="-34.31,-14.45 578.88,-14.45 568.99,520.71 -60.13,520.71 "/>
<path class="st1" d="M220.09,547.09c-13.76-18.07,16.8-318.18,0.42-351.98c-5.7-11.76-9.3-9.33-19.78-24.18
	c-25.93-36.73-30.21-88.9-13.19-100c8.49-5.53,18.73,1.45,25.27-6.04c6.71-7.68-1.71-17.68,4.95-27.47
	c6.94-10.22,25.82-13.61,34.07-7.14c3.96,3.11,4.59,7.81,8.25,8.09c4.02,0.31,5.44-5.18,10.43-8.09c8.71-5.07,25.25-0.51,31.87,9.34
	c7.66,11.4,0.23,27.21,6.04,29.67c3.08,1.3,5.61-2.96,12.09-2.75c6.94,0.22,11.98,5.36,13.19,6.59c9.14,9.31,7.52,24.7,6.59,33.52
	c-1.18,11.27-3.96,13.5-4.4,26.37c-0.32,9.41-0.43,14.91,3.09,17.82c6.85,5.65,18.86-5.54,26.58-0.23
	c5.92,4.07,7.3,16.49,2.75,24.73c-5.75,10.41-17.45,7.76-37.91,18.68c-9.74,5.2-19.82,10.58-26.37,20.33
	c-13.34,19.84,17.9,319.28,2.24,341.54C293.06,574.65,233.7,564.97,220.09,547.09z"/>
<path class="st2" d="M165.69,325.87c0.84,1.64,14.7,11.51,20.33,36.05c2.55,11.13,4.71,27.24,4.92,29.12
	c0.56,4.83-5.08,15.35-17.84,26.82c-13.97,12.56-4.49,2.95-12.37,16.58c-14.91,25.77,6.36,56.33-8.63,77.65
	c-13.21,18.77-57.27,26.36-70.88,8.48c-13.76-18.07,10.01-68.64-6.36-102.44c-1.49-3.07-2.84-5.18-4.2-6.88
	c-3.48-4.33-1.12-1.9-3.48-4.33c-4.15-4.28-7.08-12.26-8.64-18.63c-0.32-1.29-5.21-8.28-5.43-16.56c-0.14-5.17,2.4-13.51,4.88-22.58
	c1.41-6.35,9.21-13.15,17.22-23.28c18.8-23.78,29.63-19.21,36.63-19.44C129.83,305.84,155.81,306.61,165.69,325.87z"/>
<path class="st3" d="M103.43,405.59c-7.62,3.19-14.87,1.6-17.03,1.1c-2.77-0.64-10.29-2.39-15.38-9.34
	c-6.34-8.65-4.08-18.8-3.85-19.78c2.33-9.74,9.49-10.54,20.88-22.53c15.32-16.13,11.93-24.74,24.18-31.32
	c1.11-0.6,14.84-7.72,26.92-2.2c11.31,5.17,8.54,15.64,22.53,35.71c12.01,17.23,20.65,18.99,20.88,29.67
	c0.19,8.53-5.09,18.16-13.19,21.43c-9.66,3.9-20.44-2.4-21.98-3.3c-6.71-3.93-7.79-8.23-15.32-10.61
	c-2.01-0.64-6.18-1.96-11.05-0.93C112.63,395.27,112.44,401.82,103.43,405.59z"/>
<path class="st4" d="M381.7,273.61c2.12-2.5,5.17-6.11,10.43-8.09c10.22-3.85,25.42-0.25,31.87,9.34
	c7.66,11.4,0.23,27.21,6.04,29.67c3.08,1.3,5.61-2.96,12.09-2.75c6.94,0.22,11.98,5.36,13.19,6.59c9.14,9.31,7.52,24.7,6.59,33.52
	c-1.18,11.27-3.96,13.5-4.4,26.37c-0.32,9.41-0.43,14.91,3.09,17.82c6.85,5.65,18.86-5.54,26.58-0.23
	c5.92,4.07,7.3,16.49,2.75,24.73c-5.75,10.41-17.45,7.76-37.91,18.68c-9.74,5.2-19.82,10.58-26.37,20.33
	c-14.29,21.25,1.63,56.27-9.59,72.23c-13.21,18.77-55.45,17.97-69.06,0.09c-13.76-18.07,11.51-57.75-4.86-91.55
	c-4.18-8.63-7.23-9.62-12.7-15.4c0,0-3.08-3.13-7.08-8.78c-13.08-18.48-10.4-36.64-10.4-36.64c1.7-11.55,8.01-19.41,13.09-25.75
	c1.69-2.11,5.46-6.57,15.93-14.84c7.19-5.68,17.61-13.21,31.32-20.88C371.76,302.23,371.13,286.08,381.7,273.61z"/>
<path class="st5" d="M362.28,405.89c-7.62,3.19-14.87,1.6-17.03,1.1c-2.77-0.64-10.29-2.39-15.38-9.34
	c-6.34-8.65-4.08-18.8-3.85-19.78c2.33-9.74,9.49-10.54,20.88-22.53c15.32-16.13,11.93-24.74,24.18-31.32
	c1.11-0.6,14.84-7.72,26.92-2.2c11.31,5.17,8.54,15.64,22.53,35.71c12.01,17.23,20.65,18.99,20.88,29.67
	c0.19,8.53-5.09,18.16-13.19,21.43c-9.66,3.9-20.44-2.4-21.98-3.3c-6.71-3.93-7.79-8.23-15.32-10.61
	c-2.01-0.64-6.18-1.96-11.05-0.93C371.49,395.57,371.3,402.12,362.28,405.89z"/>
<path class="st5" d="M395.32,272.05c3.84-2.61,9.36-1.32,12.64,0.55c8.4,4.8,10.95,18.52,4.4,25.82c-3.01,3.35-8.59,6.07-13.19,4.4
	C389.55,299.32,387.03,277.67,395.32,272.05z"/>
<path class="st5" d="M429.61,316.83c3.84-2.61,9.36-1.32,12.64,0.55c8.4,4.8,10.95,18.52,4.4,25.82c-3.01,3.35-8.59,6.07-13.19,4.4
	C423.85,344.1,421.32,322.45,429.61,316.83z"/>
<path class="st5" d="M479.96,396.35c3.04,2.47,3.47,7.28,2.85,10.41c-1.57,8.02-11.63,13.53-19.04,10.03
	c-3.4-1.61-6.98-5.46-6.86-9.62C457.14,398.48,473.41,391.02,479.96,396.35z"/>
<path class="st6" d="M240.66,170.64c-7.62,3.19-14.87,1.6-17.03,1.1c-2.77-0.64-10.29-2.39-15.38-9.34
	c-6.34-8.65-4.08-18.8-3.85-19.78c2.33-9.74,9.49-10.54,20.88-22.53c15.32-16.13,11.93-24.74,24.18-31.32
	c1.11-0.6,14.84-7.72,26.92-2.2c11.31,5.17,8.54,15.64,22.53,35.71c12.01,17.23,20.65,18.99,20.88,29.67
	c0.19,8.53-5.09,18.16-13.19,21.43c-9.66,3.9-20.44-2.4-21.98-3.3c-6.71-3.93-7.79-8.23-15.32-10.61
	c-2.01-0.64-6.18-1.96-11.05-0.93C249.87,160.32,249.68,166.87,240.66,170.64z"/>
<path class="st7" d="M211.69,111.38c-3.84,2.61-9.36,1.32-12.64-0.55c-8.4-4.8-10.95-18.52-4.4-25.82c3.01-3.35,8.59-6.07,13.19-4.4
	C217.45,84.11,219.98,105.76,211.69,111.38z"/>
<path class="st7" d="M246.11,66.6c-3.84,2.61-9.36,1.32-12.64-0.55c-8.4-4.8-10.95-18.52-4.4-25.82c3.01-3.35,8.59-6.07,13.19-4.4
	C251.88,39.33,254.4,60.98,246.11,66.6z"/>
<path class="st7" d="M273.69,36.8c3.84-2.61,9.36-1.32,12.64,0.55c8.4,4.8,10.95,18.52,4.4,25.82c-3.01,3.35-8.59,6.07-13.19,4.4
	C267.93,64.07,265.41,42.42,273.69,36.8z"/>
<path class="st7" d="M307.99,81.57c3.84-2.61,9.36-1.32,12.64,0.55c8.4,4.8,10.95,18.52,4.4,25.82c-3.01,3.35-8.59,6.07-13.19,4.4
	C302.23,108.85,299.7,87.2,307.99,81.57z"/>
<path class="st7" d="M358.34,161.1c3.04,2.47,3.47,7.28,2.85,10.41c-1.57,8.02-11.63,13.53-19.04,10.03
	c-3.4-1.61-6.98-5.46-6.86-9.62C335.52,163.23,351.79,155.77,358.34,161.1z"/>
<path class="st2" d="M78.33,376.21"/>
<path class="st2" d="M72.84,354.78"/>
<path class="st2" d="M50.85,348.61c5.83-5.36,21.04-0.79,28.86,8.59c1.19,1.42,8.62,10.34,5.22,17.8
	c-3.31,7.24-14.33,7.58-18.13,7.69c-2.63,0.08-18.42,0.55-22.55-6.48c-1.46-2.47-0.29-5.65,0.02-11.69
	C44.74,355.47,48.28,350.98,50.85,348.61z"/>
<path class="st2" d="M27.23,348.74"/>
<path class="st2" d="M75.22,356.87"/>
<path class="st2" d="M85.81,303.33c7.88,0.83,20.45,17.26,18.58,29.32c-0.28,1.83-2.06,13.3-9.9,15.68
	c-7.62,2.31-15.16-5.74-17.76-8.52c-1.8-1.92-12.68-12.63-10.14-20.37c0.89-2.73,3.9-8.15,8.64-11.91
	C82.32,301.9,82.32,302.96,85.81,303.33z"/>
<path class="st2" d="M152.85,302.58c4.58,6.46-1.89,20.97-12.19,27.53c-1.56,1-11.36,7.23-18.31,2.91
	c-6.77-4.2-5.69-15.18-5.32-18.96c0.26-2.62,4.36-18.16,11.85-21.37c2.64-1.13,8.33-1.26,14.29-0.18
	C152.08,294.14,152.85,302.58,152.85,302.58z"/>
<path class="st2" d="M191.46,344.57c-1.61,7.75-16.64,12.9-28.46,9.83c-1.79-0.47-13.03-3.39-14.61-11.43
	c-1.53-7.81,7.23-14.51,10.26-16.81c2.09-1.6,11.23-8.57,18.68-5.27c2.62,1.16,7.08-0.11,10.34,4.98
	C192.55,333.5,192.17,341.14,191.46,344.57z"/>
<path class="st2" d="M153.06,442.25c-6.58-0.28-12.83-11.91-11.9-22.02c0.14-1.53,1.02-11.14,7.4-13.52
	c6.2-2.31,12.87,3.98,15.17,6.15c1.59,1.5,8.37,8.58,9.25,15.3c0.43,3.26-0.24,7.43-3.98,10.79
	C163.42,443.98,155.98,442.37,153.06,442.25z"/>
<path class="st8" d="M333.38,332.13c7.92,0.2,15.68,14.06,14.77,26.23c-0.14,1.85-1,13.43-8.62,16.42
	c-7.41,2.91-15.57-4.52-18.38-7.08c-1.95-1.77-13.62-12.41-11.71-20.33c0.67-2.79,1.99-7.11,6.42-11.23
	C322.49,329.97,329.88,332.05,333.38,332.13z"/>
<path class="st8" d="M365.72,302.65c7.88,0.76,16.46,18.23,14.69,30.31c-0.27,1.83-1.95,13.32-9.77,15.76
	c-7.6,2.37-15.21-5.61-17.83-8.37c-1.81-1.9-12.7-13.35-10.23-21.12c0.87-2.73,1.09-6.61,5.8-10.41
	C355.43,303.14,362.23,302.31,365.72,302.65z"/>
</svg>
