<?xml version="1.0" encoding="utf-8"?>
<!-- Generator: Adobe Illustrator 24.0.2, SVG Export Plug-In . SVG Version: 6.00 Build 0)  -->
<svg version="1.1" id="Layer_1" xmlns="http://www.w3.org/2000/svg" xmlns:xlink="http://www.w3.org/1999/xlink" x="0px" y="0px"
	 viewBox="0 0 500 500" style="enable-background:new 0 0 500 500;" xml:space="preserve">
<style type="text/css">
	.st0{opacity:0.54;fill:#FFA75F;stroke:#FF00FF;stroke-width:5;stroke-miterlimit:10;}
	.st1{opacity:0.55;fill:#FF369B;stroke:#F15A24;stroke-width:5;stroke-miterlimit:10;}
	.st2{fill:#FFFFFF;stroke:#000000;stroke-width:5;stroke-miterlimit:10;}
	.st3{fill:#FFA75F;stroke:#FF00FF;stroke-width:5;stroke-miterlimit:10;}
	.st4{fill:#FD9FFF;stroke:#EF86A3;stroke-width:5;stroke-miterlimit:10;}
	.st5{fill:none;stroke:#000000;stroke-miterlimit:10;}
	.st6{fill:#FFF38A;stroke:#F3FF8A;stroke-width:5;stroke-miterlimit:10;}
</style>
<polygon class="st0" points="-96.52,-4.52 598.4,-17.51 582.01,546.33 -106.69,562.71 "/>
<line class="st1" x1="59.79" y1="163.84" x2="423.63" y2="163.84"/>
<path class="st2" d="M31.73,177.4"/>
<line class="st1" x1="63.93" y1="293.22" x2="427.77" y2="293.22"/>
<line class="st1" x1="180.88" y1="410.89" x2="180.88" y2="47.05"/>
<line class="st1" x1="308.95" y1="410.89" x2="308.95" y2="47.05"/>
<path class="st3" d="M302.92,163.84"/>
<path class="st4" d="M113.4,138.14c-1.9-1.1-11-8.19-12.3-9.02c-18.86-11.98-21.91-14.82-25.78-27.05C73,94.73,75,81.97,81.43,76.25
	c5.5-4.91,13.68-5.17,19.27-3.28c8.27,2.8,15.09,11.76,16.4,19.27c0.23,1.33,0.6,4.38,1.64,4.51c1.05,0.13,2.15-2.82,2.87-4.51
	c2.94-6.88,8.45-13.42,13.53-16.4c0.79-0.46,8.03-4.55,15.99-2.05c9.65,3.03,14.95,14.06,14.35,22.96
	c-0.37,5.47-3.12,9.11-8.61,16.4c-11.84,15.71-18.88,16.66-30.74,25.42l-6.16,4.51L113.4,138.14z"/>
<path d="M136.07,97.69c-3.86,0-3.87,6,0,6C139.93,103.69,139.93,97.69,136.07,97.69z"/>
<path d="M104.99,98.25c-3.86,0-3.87,6,0,6C108.86,104.25,108.86,98.25,104.99,98.25z"/>
<path class="st5" d="M111.77,114.81c0.52,5.37,6,7.68,10.17,6.78c7.89-1.71,6.78,0.19,10.17-8.47"/>
<path class="st4" d="M238.37,257.71c-1.9-1.1-11-8.19-12.3-9.02c-18.86-11.98-21.91-14.82-25.78-27.05
	c-2.32-7.34-0.32-20.1,6.1-25.83c5.5-4.91,13.68-5.17,19.27-3.28c8.27,2.8,15.09,11.76,16.4,19.27c0.23,1.33,0.6,4.38,1.64,4.51
	c1.05,0.13,2.15-2.82,2.87-4.51c2.94-6.88,8.45-13.42,13.53-16.4c0.79-0.46,8.03-4.55,15.99-2.05c9.65,3.03,14.95,14.06,14.35,22.96
	c-0.37,5.47-3.12,9.11-8.61,16.4c-11.84,15.71-18.88,16.66-30.74,25.42l-6.16,4.51L238.37,257.71z"/>
<path d="M261.03,217.25c-3.86,0-3.87,6,0,6C264.89,223.25,264.9,217.25,261.03,217.25z"/>
<path d="M229.96,217.82c-3.86,0-3.87,6,0,6C233.82,223.82,233.83,217.82,229.96,217.82z"/>
<path class="st5" d="M236.74,234.38c0.52,5.37,6,7.68,10.17,6.78c7.89-1.71,6.78,0.19,10.17-8.47"/>
<path class="st4" d="M367.09,386.14c-1.9-1.1-11-8.19-12.3-9.02c-18.86-11.98-21.91-14.82-25.78-27.05
	c-2.32-7.34-0.32-20.1,6.1-25.83c5.5-4.91,13.68-5.17,19.27-3.28c8.27,2.8,15.09,11.76,16.4,19.27c0.23,1.33,0.6,4.38,1.64,4.51
	c1.05,0.13,2.15-2.82,2.87-4.51c2.94-6.88,8.45-13.42,13.53-16.4c0.79-0.46,8.03-4.55,15.99-2.05c9.65,3.03,14.95,14.06,14.35,22.96
	c-0.37,5.47-3.12,9.11-8.61,16.4c-11.84,15.71-18.88,16.66-30.74,25.42l-6.16,4.51L367.09,386.14z"/>
<path d="M389.76,345.69c-3.86,0-3.87,6,0,6C393.62,351.69,393.62,345.69,389.76,345.69z"/>
<path d="M358.68,346.25c-3.86,0-3.87,6,0,6C362.54,352.25,362.55,346.25,358.68,346.25z"/>
<path class="st5" d="M365.46,362.81c0.52,5.37,6,7.68,10.17,6.78c7.89-1.71,6.78,0.19,10.17-8.47"/>
<polygon class="st6" points="232.86,95.04 241.71,62.27 257.08,95.04 285.22,88.82 263.93,117.45 269.97,146.45 244.92,129.5 
	221.38,146.45 227.06,117.45 201.6,89.39 "/>
<path d="M252.9,100.69c-3.86,0-3.87,6,0,6C256.76,106.69,256.77,100.69,252.9,100.69z"/>
<path d="M237.23,101.25c-3.86,0-3.87,6,0,6C241.09,107.25,241.1,101.25,237.23,101.25z"/>
<path class="st5" d="M238.79,113.68c1.85,3.98,6.17,5.77,9.55,4.52c2.45-0.91,4.2-3.35,4.58-6.21"/>
<polygon class="st6" points="234.36,343.99 243.21,311.22 258.58,343.99 286.72,337.78 265.43,366.41 271.47,395.41 246.42,378.46 
	222.88,395.41 228.56,366.41 203.11,338.34 "/>
<path d="M254.4,355.64c3.86,0,3.87-6,0-6C250.54,349.64,250.53,355.64,254.4,355.64"/>
<path d="M238.73,350.21c-3.86,0-3.87,6,0,6C242.59,356.21,242.6,350.21,238.73,350.21"/>
<path class="st5" d="M240.29,362.64c1.85,3.98,6.17,5.77,9.55,4.52c2.45-0.91,4.2-3.35,4.58-6.21"/>
<polygon class="st6" points="357.35,95.04 366.2,62.27 381.57,95.04 409.71,88.82 388.42,117.45 394.46,146.45 369.4,129.5 
	345.87,146.45 351.55,117.45 326.09,89.39 "/>
<path d="M377.39,106.69c3.86,0,3.87-6,0-6C373.53,100.69,373.52,106.69,377.39,106.69"/>
<path d="M361.72,101.25c-3.86,0-3.87,6,0,6C365.58,107.25,365.59,101.25,361.72,101.25"/>
<path class="st5" d="M363.28,113.68c1.85,3.98,6.17,5.77,9.55,4.52c2.45-0.91,4.2-3.35,4.58-6.21"/>
</svg>
